<svg width="37" height="36" viewBox="0 0 37 36" fill="none" xmlns="http://www.w3.org/2000/svg">
<path d="M20.4205 18.7954L14.516 24.7016C14.3046 24.9105 14.0191 25.0273 13.7219 25.0264C13.4247 25.0256 13.14 24.9071 12.9298 24.697C12.7196 24.4869 12.6011 24.2022 12.6002 23.905C12.5993 23.6078 12.7159 23.3223 12.9248 23.1109L16.9095 19.125H3.875C3.57663 19.125 3.29048 19.0065 3.0795 18.7955C2.86853 18.5845 2.75 18.2984 2.75 18C2.75 17.7016 2.86853 17.4155 3.0795 17.2045C3.29048 16.9935 3.57663 16.875 3.875 16.875H16.9095L12.9248 12.8891C12.7159 12.6777 12.5993 12.3922 12.6002 12.095C12.6011 11.7978 12.7196 11.5131 12.9298 11.303C13.14 11.0929 13.4247 10.9744 13.7219 10.9736C14.0191 10.9727 14.3046 11.0895 14.516 11.2984L20.4205 17.2046C20.6314 17.4156 20.7499 17.7017 20.7499 18C20.7499 18.2983 20.6314 18.5844 20.4205 18.7954ZM27.5 4.5H19.625C19.3266 4.5 19.0405 4.61853 18.8295 4.82951C18.6185 5.04048 18.5 5.32663 18.5 5.625C18.5 5.92337 18.6185 6.20952 18.8295 6.42049C19.0405 6.63147 19.3266 6.75 19.625 6.75H27.5V29.25H19.625C19.3266 29.25 19.0405 29.3685 18.8295 29.5795C18.6185 29.7905 18.5 30.0766 18.5 30.375C18.5 30.6734 18.6185 30.9595 18.8295 31.1705C19.0405 31.3815 19.3266 31.5 19.625 31.5H27.5C28.0965 31.4993 28.6684 31.2621 29.0903 30.8403C29.5121 30.4184 29.7493 29.8465 29.75 29.25V6.75C29.7493 6.15347 29.5121 5.58156 29.0903 5.15975C28.6684 4.73794 28.0965 4.50067 27.5 4.5Z" fill="#2F2F2F"/>
</svg>
