<svg width="18" height="17" viewBox="0 0 18 17" fill="none" xmlns="http://www.w3.org/2000/svg">
<path d="M10.6991 8.82404L8.29354 11.2303C8.20742 11.3154 8.09112 11.363 7.97005 11.3626C7.84897 11.3623 7.73295 11.314 7.64733 11.2284C7.5617 11.1428 7.51343 11.0268 7.51304 10.9057C7.51266 10.7847 7.5602 10.6683 7.64528 10.5822L9.2687 8.95833H3.95833C3.83678 8.95833 3.7202 8.91004 3.63424 8.82409C3.54829 8.73814 3.5 8.62156 3.5 8.5C3.5 8.37844 3.54829 8.26186 3.63424 8.17591C3.7202 8.08995 3.83678 8.04167 3.95833 8.04167H9.2687L7.64528 6.41779C7.5602 6.33165 7.51266 6.21534 7.51304 6.09427C7.51343 5.97319 7.5617 5.85719 7.64733 5.77158C7.73295 5.68598 7.84897 5.63774 7.97005 5.63739C8.09112 5.63703 8.20742 5.6846 8.29354 5.76971L10.6991 8.17596C10.785 8.26191 10.8333 8.37847 10.8333 8.5C10.8333 8.62153 10.785 8.73809 10.6991 8.82404ZM13.5833 3H10.375C10.2534 3 10.1369 3.04829 10.0509 3.13424C9.96495 3.2202 9.91667 3.33678 9.91667 3.45833C9.91667 3.57989 9.96495 3.69647 10.0509 3.78242C10.1369 3.86838 10.2534 3.91667 10.375 3.91667H13.5833V13.0833H10.375C10.2534 13.0833 10.1369 13.1316 10.0509 13.2176C9.96495 13.3035 9.91667 13.4201 9.91667 13.5417C9.91667 13.6632 9.96495 13.7798 10.0509 13.8658C10.1369 13.9517 10.2534 14 10.375 14H13.5833C13.8264 13.9997 14.0594 13.9031 14.2312 13.7312C14.4031 13.5594 14.4997 13.3264 14.5 13.0833V3.91667C14.4997 3.67364 14.4031 3.44064 14.2312 3.26879C14.0594 3.09694 13.8264 3.00027 13.5833 3Z" fill="#2F2F2F"/>
</svg>
