<svg width="68" height="68" viewBox="0 0 68 68" fill="none" xmlns="http://www.w3.org/2000/svg">
<ellipse cx="33.8451" cy="34" rx="33.8451" ry="34" fill="#DDDCDC"/>
<path d="M29.2447 34.7038C29.4289 34.488 29.6567 34.3137 29.9132 34.1924C30.1697 34.071 30.449 34.0054 30.7327 33.9998H37.266C37.8847 33.9998 38.4047 34.3145 38.754 34.7038C39.1159 35.1037 39.3214 35.6207 39.3327 36.1598V36.5865C39.3327 38.7652 37.154 40.6665 33.9993 40.6665C30.8447 40.6665 28.666 38.7652 28.666 36.5865V36.1598C28.666 35.6212 28.898 35.0932 29.2447 34.7038ZM33.9993 31.3332C34.7066 31.3332 35.3849 31.0522 35.885 30.5521C36.3851 30.052 36.666 29.3737 36.666 28.6665C36.666 27.9593 36.3851 27.281 35.885 26.7809C35.3849 26.2808 34.7066 25.9998 33.9993 25.9998C33.2921 25.9998 32.6138 26.2808 32.1137 26.7809C31.6136 27.281 31.3327 27.9593 31.3327 28.6665C31.3327 29.3737 31.6136 30.052 32.1137 30.5521C32.6138 31.0522 33.2921 31.3332 33.9993 31.3332ZM33.9993 47.3332C37.5356 47.3332 40.927 45.9284 43.4274 43.4279C45.9279 40.9274 47.3327 37.5361 47.3327 33.9998C47.3327 30.4636 45.9279 27.0722 43.4274 24.5717C40.927 22.0713 37.5356 20.6665 33.9993 20.6665C30.4631 20.6665 27.0717 22.0713 24.5713 24.5717C22.0708 27.0722 20.666 30.4636 20.666 33.9998C20.666 37.5361 22.0708 40.9274 24.5713 43.4279C27.0717 45.9284 30.4631 47.3332 33.9993 47.3332ZM33.9993 44.6665C31.1704 44.6665 28.4573 43.5427 26.4569 41.5423C24.4565 39.5419 23.3327 36.8288 23.3327 33.9998C23.3327 31.1709 24.4565 28.4578 26.4569 26.4574C28.4573 24.457 31.1704 23.3332 33.9993 23.3332C36.8283 23.3332 39.5414 24.457 41.5418 26.4574C43.5422 28.4578 44.666 31.1709 44.666 33.9998C44.666 36.8288 43.5422 39.5419 41.5418 41.5423C39.5414 43.5427 36.8283 44.6665 33.9993 44.6665Z" fill="#2F2F2F"/>
</svg>
