<svg width="24" height="24" viewBox="0 0 24 24" fill="none" xmlns="http://www.w3.org/2000/svg">
<path d="M24 6.38299V4.70457H21.8638V1.23963C21.8605 0.908246 21.7142 0.591616 21.4572 0.35922C21.2002 0.126824 20.8533 -0.00235448 20.4928 3.25015e-05H1.37101C1.01047 -0.00235448 0.663631 0.126824 0.406599 0.35922C0.149566 0.591616 0.0033365 0.908246 0 1.23963V22.7604C0.0033365 23.0918 0.149566 23.4084 0.406599 23.6408C0.663631 23.8732 1.01047 24.0024 1.37101 24H20.4928C20.8533 24.0024 21.2002 23.8732 21.4572 23.6408C21.7142 23.4084 21.8605 23.0918 21.8638 22.7604V19.1953H24V17.5169H21.8638V12.7892H24V11.1107H21.8638V6.38299H24ZM20.0378 11.1107H17.466V12.7892H20.0378V17.5169H17.466V19.1953H20.0378V22.3216H1.82605V1.67845H20.0378V4.70457H17.466V6.38299H20.0378V11.1107Z" fill="#2C2C2C"/>
<path d="M14.0686 14.4998L12.5034 13.5647L13.2559 11.8803V9.23419C13.2559 8.36192 12.8789 7.52539 12.2079 6.9086C11.5368 6.29182 10.6267 5.94531 9.67774 5.94531C8.72875 5.94531 7.81863 6.29182 7.1476 6.9086C6.47656 7.52539 6.09958 8.36192 6.09958 9.23419V11.8646L6.79224 13.6004L5.28691 14.4998C4.91254 14.7226 4.60492 15.028 4.39221 15.3883C4.17951 15.7486 4.06849 16.1521 4.06934 16.562V19.1581H15.2861V16.562C15.287 16.1521 15.176 15.7486 14.9633 15.3883C14.7505 15.028 14.4429 14.7226 14.0686 14.4998ZM13.5437 17.5565H5.81175V16.562C5.81147 16.419 5.85019 16.2783 5.92439 16.1526C5.99859 16.0269 6.10589 15.9204 6.23647 15.8427L8.90634 14.2475L7.84199 11.5799V9.23419C7.84199 8.78668 8.0354 8.3575 8.37967 8.04106C8.72394 7.72463 9.19087 7.54686 9.67774 7.54686C10.1646 7.54686 10.6315 7.72463 10.9758 8.04106C11.3201 8.3575 11.5135 8.78668 11.5135 9.23419V11.5643L10.3428 14.1842L13.119 15.8427C13.2496 15.9204 13.3569 16.0269 13.4311 16.1526C13.5053 16.2783 13.544 16.419 13.5437 16.562V17.5565Z" fill="#2C2C2C"/>
</svg>
