<svg width="24" height="24" viewBox="0 0 24 24" fill="none" xmlns="http://www.w3.org/2000/svg">
<path d="M6.45508 12H19.0554L15.8279 8.66667L17.6482 6.77333L24 13.3333L17.6482 19.8933L15.8279 18L19.0554 14.6667H6.45508V12ZM20.6563 0C21.3411 0 21.9978 0.280951 22.482 0.781048C22.9663 1.28115 23.2383 1.95942 23.2383 2.66667V8.89333L20.6563 6.22667V5.33333H2.58203V21.3333H20.6563V20.44L23.2383 17.7733V21.3333C23.2383 22.0406 22.9663 22.7189 22.482 23.219C21.9978 23.719 21.3411 24 20.6563 24H2.58203C1.89724 24 1.24049 23.719 0.75626 23.219C0.272035 22.7189 0 22.0406 0 21.3333V2.66667C0 1.95942 0.272035 1.28115 0.75626 0.781048C1.24049 0.280951 1.89724 0 2.58203 0H20.6563Z" fill="#2C2C2C"/>
</svg>
