<svg width="20" height="21" viewBox="0 0 20 21" fill="none" xmlns="http://www.w3.org/2000/svg">
<path d="M16.0901 11.0849V9.24569H14.7371V11.3793C14.7372 11.5679 14.8085 11.7488 14.9353 11.8821L16.7665 13.8074V14.9353H1.88419V13.8074L3.7154 11.8821C3.84227 11.7488 3.91356 11.5679 3.9136 11.3793V8.53448C3.91172 7.53509 4.16072 6.55287 4.63546 5.68704C5.11019 4.8212 5.79385 4.10241 6.61739 3.60326C7.44092 3.10412 8.37515 2.8423 9.32573 2.84424C10.2763 2.84619 11.2096 3.11184 12.0312 3.61435V2.02481C11.3873 1.72505 10.7024 1.53399 10.0018 1.45869V0H8.6489V1.45797C6.98111 1.63644 5.4355 2.45872 4.31094 3.76583C3.18638 5.07293 2.56276 6.772 2.56066 8.53448V11.0849L0.729456 13.0101C0.602584 13.1435 0.531288 13.3243 0.53125 13.5129V15.6466C0.53125 15.8352 0.602521 16.0161 0.729384 16.1495C0.856246 16.2828 1.02831 16.3578 1.20772 16.3578H5.94301V17.069C5.94301 18.0121 6.29937 18.9166 6.93368 19.5835C7.568 20.2503 8.42831 20.625 9.32537 20.625C10.2224 20.625 11.0827 20.2503 11.7171 19.5835C12.3514 18.9166 12.7077 18.0121 12.7077 17.069V16.3578H17.443C17.6224 16.3578 17.7945 16.2828 17.9214 16.1495C18.0482 16.0161 18.1195 15.8352 18.1195 15.6466V13.5129C18.1194 13.3243 18.0481 13.1435 17.9213 13.0101L16.0901 11.0849ZM11.3548 17.069C11.3548 17.6348 11.141 18.1775 10.7604 18.5777C10.3798 18.9778 9.8636 19.2026 9.32537 19.2026C8.78713 19.2026 8.27094 18.9778 7.89036 18.5777C7.50977 18.1775 7.29596 17.6348 7.29596 17.069V16.3578H11.3548V17.069Z" fill="#2F2F2F"/>
<path d="M16.7684 6.875C18.2628 6.875 19.4743 5.64378 19.4743 4.125C19.4743 2.60622 18.2628 1.375 16.7684 1.375C15.274 1.375 14.0625 2.60622 14.0625 4.125C14.0625 5.64378 15.274 6.875 16.7684 6.875Z" fill="#FE6160"/>
</svg>
