<svg width="13" height="17" viewBox="0 0 13 17" fill="none" xmlns="http://www.w3.org/2000/svg">
<path d="M3.987 1.06597L3.271 1.28197C2.63239 1.47434 2.06204 1.84516 1.62711 2.35079C1.19217 2.85641 0.910757 3.47578 0.816001 4.13597C0.519001 6.20397 1.183 8.62197 2.784 11.395C4.381 14.161 6.139 15.943 8.074 16.723C8.69573 16.9735 9.37633 17.0403 10.0349 16.9153C10.6935 16.7904 11.3023 16.4789 11.789 16.018L12.332 15.504C12.6838 15.1707 12.9027 14.7211 12.9479 14.2387C12.9931 13.7563 12.8617 13.2738 12.578 12.881L11.222 11.001C11.0387 10.7472 10.7805 10.5571 10.4837 10.4574C10.1869 10.3577 9.86638 10.3533 9.567 10.445L7.516 11.072L7.463 11.082C7.237 11.115 6.716 10.626 6.066 9.49997C5.386 8.32197 5.244 7.63297 5.432 7.45497L6.476 6.48197C6.85724 6.12631 7.1176 5.66024 7.22054 5.14912C7.32348 4.638 7.26385 4.10748 7.05 3.63197L6.39 2.16097C6.1909 1.71787 5.83733 1.36239 5.39532 1.16089C4.95331 0.95939 4.45307 0.92565 3.988 1.06597H3.987ZM5.477 2.57097L6.138 4.04197C6.26654 4.3272 6.30248 4.64554 6.24078 4.95225C6.17908 5.25896 6.02283 5.53863 5.794 5.75197L4.748 6.72597C4.078 7.35897 4.3 8.44197 5.199 9.99997C6.046 11.466 6.818 12.19 7.647 12.064L7.771 12.038L9.859 11.401C9.95881 11.3703 10.0657 11.3717 10.1647 11.4048C10.2637 11.438 10.3498 11.5014 10.411 11.586L11.767 13.466C11.909 13.6624 11.9748 13.9038 11.9522 14.1451C11.9295 14.3864 11.82 14.6113 11.644 14.778L11.101 15.292C10.7533 15.621 10.3185 15.8433 9.84825 15.9325C9.37796 16.0216 8.89196 15.9739 8.448 15.795C6.75 15.111 5.145 13.484 3.65 10.895C2.152 8.29997 1.546 6.09297 1.806 4.27797C1.87364 3.80628 2.07468 3.36374 2.38543 3.0025C2.69619 2.64125 3.10371 2.37634 3.56 2.23897L4.277 2.02297C4.50946 1.95312 4.75939 1.9702 4.98018 2.07103C5.20097 2.17186 5.37756 2.34955 5.477 2.57097Z" fill="black"/>
</svg>
