<svg width="24" height="24" viewBox="0 0 24 24" fill="none" xmlns="http://www.w3.org/2000/svg">
<path d="M2 3.2V20.8C2 21.3835 2.26337 21.9431 2.73217 22.3556C3.20097 22.7682 3.8368 23 4.49978 23H19.4984C20.1614 23 20.7973 22.7682 21.2661 22.3556C21.7349 21.9431 21.9982 21.3835 21.9982 20.8V7.9762C21.9982 7.68312 21.9316 7.39299 21.8024 7.12287C21.6732 6.85275 21.4839 6.60807 21.2458 6.4032L15.6963 1.627C15.2293 1.22512 14.6021 1.00007 13.9489 1H4.49978C3.8368 1 3.20097 1.23178 2.73217 1.64436C2.26337 2.05695 2 2.61652 2 3.2V3.2Z" stroke="#2C2C2C" stroke-width="2" stroke-linecap="round" stroke-linejoin="round"/>
<path d="M8.25 13.1H15.7493" stroke="#2C2C2C" stroke-width="2" stroke-linecap="round" stroke-linejoin="round"/>
<path d="M8.25 17.5H11.9997" stroke="#2C2C2C" stroke-width="2" stroke-linecap="round" stroke-linejoin="round"/>
<path d="M14.501 1V5.4C14.501 5.98348 14.7643 6.54306 15.2331 6.95564C15.7019 7.36822 16.3378 7.6 17.0008 7.6H22.0003" stroke="#2C2C2C" stroke-width="2" stroke-linejoin="round"/>
</svg>
