<svg width="19" height="20" viewBox="0 0 19 20" fill="none" xmlns="http://www.w3.org/2000/svg">
<path d="M19 18.7358L13.6927 13.3077C14.968 11.7418 15.604 9.73319 15.4683 7.69985C15.3326 5.66652 14.4357 3.76497 12.9641 2.39078C11.4924 1.0166 9.55947 0.275573 7.56726 0.32187C5.57505 0.368167 3.67699 1.19822 2.26792 2.63935C0.858851 4.08048 0.047267 6.02173 0.00200022 8.05927C-0.0432665 10.0968 0.681269 12.0738 2.02488 13.5789C3.3685 15.084 5.22774 16.0013 7.21584 16.1401C9.20393 16.2789 11.1678 15.6285 12.6989 14.3241L18.0063 19.7522L19 18.7358ZM1.43068 8.25193C1.43068 6.97251 1.80163 5.72182 2.49662 4.65802C3.19162 3.59422 4.17944 2.76508 5.33518 2.27547C6.49091 1.78586 7.76265 1.65775 8.98957 1.90735C10.2165 2.15696 11.3435 2.77306 12.2281 3.67775C13.1126 4.58244 13.715 5.73508 13.9591 6.98992C14.2031 8.24476 14.0779 9.54543 13.5991 10.7275C13.1204 11.9095 12.3097 12.9198 11.2696 13.6306C10.2295 14.3414 9.00659 14.7208 7.75563 14.7208C6.07872 14.7189 4.47102 14.0368 3.28527 12.824C2.09951 11.6113 1.43254 9.967 1.43068 8.25193Z" fill="#ABABAB"/>
</svg>
