<svg width="16" height="737" viewBox="0 0 16 737" fill="none" xmlns="http://www.w3.org/2000/svg">
<line x1="8.5" y1="1.5" x2="8.50003" y2="735.5" stroke="url(#paint0_linear)" stroke-width="3" stroke-linecap="round"/>
<circle cx="8.39961" cy="480.6" r="6.8" fill="white"/>
<path d="M16 481C16 485.418 12.4183 489 8 489C3.58172 489 0 485.418 0 481C0 476.582 3.58172 473 8 473C12.4183 473 16 476.582 16 481ZM2.06408 481C2.06408 484.278 4.72168 486.936 8 486.936C11.2783 486.936 13.9359 484.278 13.9359 481C13.9359 477.722 11.2783 475.064 8 475.064C4.72168 475.064 2.06408 477.722 2.06408 481Z" fill="#2067D1"/>
<circle cx="8.39961" cy="366.6" r="6.8" fill="white"/>
<path d="M16 368C16 372.418 12.4183 376 8 376C3.58172 376 0 372.418 0 368C0 363.582 3.58172 360 8 360C12.4183 360 16 363.582 16 368ZM2.06408 368C2.06408 371.278 4.72168 373.936 8 373.936C11.2783 373.936 13.9359 371.278 13.9359 368C13.9359 364.722 11.2783 362.064 8 362.064C4.72168 362.064 2.06408 364.722 2.06408 368Z" fill="#FFDF6A"/>
<circle cx="8.39961" cy="260.6" r="6.8" fill="white"/>
<path d="M16 261C16 265.418 12.4183 269 8 269C3.58172 269 0 265.418 0 261C0 256.582 3.58172 253 8 253C12.4183 253 16 256.582 16 261ZM2.06408 261C2.06408 264.278 4.72168 266.936 8 266.936C11.2783 266.936 13.9359 264.278 13.9359 261C13.9359 257.722 11.2783 255.064 8 255.064C4.72168 255.064 2.06408 257.722 2.06408 261Z" fill="#2067D1"/>
<circle cx="8.39961" cy="147.6" r="6.8" fill="white"/>
<path d="M16 148C16 152.418 12.4183 156 8 156C3.58172 156 0 152.418 0 148C0 143.582 3.58172 140 8 140C12.4183 140 16 143.582 16 148ZM2.06408 148C2.06408 151.278 4.72168 153.936 8 153.936C11.2783 153.936 13.9359 151.278 13.9359 148C13.9359 144.722 11.2783 142.064 8 142.064C4.72168 142.064 2.06408 144.722 2.06408 148Z" fill="#E82E2E"/>
<circle cx="8.39961" cy="34.6" r="6.8" fill="white"/>
<path d="M16 35C16 39.4183 12.4183 43 8 43C3.58172 43 0 39.4183 0 35C0 30.5817 3.58172 27 8 27C12.4183 27 16 30.5817 16 35ZM2.06408 35C2.06408 38.2783 4.72168 40.9359 8 40.9359C11.2783 40.9359 13.9359 38.2783 13.9359 35C13.9359 31.7217 11.2783 29.0641 8 29.0641C4.72168 29.0641 2.06408 31.7217 2.06408 35Z" fill="#53CF48"/>
<defs>
<linearGradient id="paint0_linear" x1="7" y1="38.5" x2="7" y2="651" gradientUnits="userSpaceOnUse">
<stop stop-color="#717070" stop-opacity="0.48"/>
<stop offset="1" stop-color="#ECECEC" stop-opacity="0.17"/>
</linearGradient>
</defs>
</svg>
