<svg width="28" height="18" viewBox="0 0 28 18" fill="none" xmlns="http://www.w3.org/2000/svg">
<path d="M2 3C2.82843 3 3.5 2.32843 3.5 1.5C3.5 0.671573 2.82843 0 2 0C1.17157 0 0.5 0.671573 0.5 1.5C0.5 2.32843 1.17157 3 2 3Z" fill="black"/>
<path d="M2 10.5C2.82843 10.5 3.5 9.82843 3.5 9C3.5 8.17157 2.82843 7.5 2 7.5C1.17157 7.5 0.5 8.17157 0.5 9C0.5 9.82843 1.17157 10.5 2 10.5Z" fill="black"/>
<path d="M2 18C2.82843 18 3.5 17.3284 3.5 16.5C3.5 15.6716 2.82843 15 2 15C1.17157 15 0.5 15.6716 0.5 16.5C0.5 17.3284 1.17157 18 2 18Z" fill="black"/>
<path d="M26.09 7.5H7.91C7.13128 7.5 6.5 8.13128 6.5 8.91V9.09C6.5 9.86872 7.13128 10.5 7.91 10.5H26.09C26.8687 10.5 27.5 9.86872 27.5 9.09V8.91C27.5 8.13128 26.8687 7.5 26.09 7.5Z" fill="black"/>
<path d="M26.09 15H7.91C7.13128 15 6.5 15.6313 6.5 16.41V16.59C6.5 17.3687 7.13128 18 7.91 18H26.09C26.8687 18 27.5 17.3687 27.5 16.59V16.41C27.5 15.6313 26.8687 15 26.09 15Z" fill="black"/>
<path d="M26.09 0H7.91C7.13128 0 6.5 0.631279 6.5 1.41V1.59C6.5 2.36872 7.13128 3 7.91 3H26.09C26.8687 3 27.5 2.36872 27.5 1.59V1.41C27.5 0.631279 26.8687 0 26.09 0Z" fill="black"/>
</svg>
