<svg width="26" height="26" viewBox="0 0 26 26" fill="none" xmlns="http://www.w3.org/2000/svg">
<path d="M6 2.5V6H2.5V2.5H6ZM7.75 23.5V20C7.75 19.5359 7.56563 19.0908 7.23744 18.7626C6.90925 18.4344 6.46413 18.25 6 18.25H2.5C2.03587 18.25 1.59075 18.4344 1.26256 18.7626C0.934374 19.0908 0.75 19.5359 0.75 20V23.5C0.75 23.9641 0.934374 24.4092 1.26256 24.7374C1.59075 25.0656 2.03587 25.25 2.5 25.25H6C6.46413 25.25 6.90925 25.0656 7.23744 24.7374C7.56563 24.4092 7.75 23.9641 7.75 23.5ZM7.75 14.75V11.25C7.75 10.7859 7.56563 10.3408 7.23744 10.0126C6.90925 9.68437 6.46413 9.5 6 9.5H2.5C2.03587 9.5 1.59075 9.68437 1.26256 10.0126C0.934374 10.3408 0.75 10.7859 0.75 11.25V14.75C0.75 15.2141 0.934374 15.6592 1.26256 15.9874C1.59075 16.3156 2.03587 16.5 2.5 16.5H6C6.46413 16.5 6.90925 16.3156 7.23744 15.9874C7.56563 15.6592 7.75 15.2141 7.75 14.75ZM7.75 6V2.5C7.75 2.03587 7.56563 1.59075 7.23744 1.26256C6.90925 0.934374 6.46413 0.75 6 0.75H2.5C2.03587 0.75 1.59075 0.934374 1.26256 1.26256C0.934374 1.59075 0.75 2.03587 0.75 2.5V6C0.75 6.46413 0.934374 6.90925 1.26256 7.23744C1.59075 7.56563 2.03587 7.75 2.5 7.75H6C6.46413 7.75 6.90925 7.56563 7.23744 7.23744C7.56563 6.90925 7.75 6.46413 7.75 6ZM16.5 23.5V20C16.5 19.5359 16.3156 19.0908 15.9874 18.7626C15.6592 18.4344 15.2141 18.25 14.75 18.25H11.25C10.7859 18.25 10.3408 18.4344 10.0126 18.7626C9.68437 19.0908 9.5 19.5359 9.5 20V23.5C9.5 23.9641 9.68437 24.4092 10.0126 24.7374C10.3408 25.0656 10.7859 25.25 11.25 25.25H14.75C15.2141 25.25 15.6592 25.0656 15.9874 24.7374C16.3156 24.4092 16.5 23.9641 16.5 23.5ZM16.5 14.75V11.25C16.5 10.7859 16.3156 10.3408 15.9874 10.0126C15.6592 9.68437 15.2141 9.5 14.75 9.5H11.25C10.7859 9.5 10.3408 9.68437 10.0126 10.0126C9.68437 10.3408 9.5 10.7859 9.5 11.25V14.75C9.5 15.2141 9.68437 15.6592 10.0126 15.9874C10.3408 16.3156 10.7859 16.5 11.25 16.5H14.75C15.2141 16.5 15.6592 16.3156 15.9874 15.9874C16.3156 15.6592 16.5 15.2141 16.5 14.75ZM16.5 6V2.5C16.5 2.03587 16.3156 1.59075 15.9874 1.26256C15.6592 0.934374 15.2141 0.75 14.75 0.75H11.25C10.7859 0.75 10.3408 0.934374 10.0126 1.26256C9.68437 1.59075 9.5 2.03587 9.5 2.5V6C9.5 6.46413 9.68437 6.90925 10.0126 7.23744C10.3408 7.56563 10.7859 7.75 11.25 7.75H14.75C15.2141 7.75 15.6592 7.56563 15.9874 7.23744C16.3156 6.90925 16.5 6.46413 16.5 6ZM14.75 2.5V6H11.25V2.5H14.75ZM23.5 2.5V6H20V2.5H23.5ZM6 11.25V14.75H2.5V11.25H6ZM14.75 11.25V14.75H11.25V11.25H14.75ZM23.5 11.25H20V14.75H23.5V11.25ZM6 20V23.5H2.5V20H6ZM14.75 20V23.5H11.25V20H14.75ZM23.5 20V23.5H20V20H23.5ZM20 0.75C19.5359 0.75 19.0908 0.934374 18.7626 1.26256C18.4344 1.59075 18.25 2.03587 18.25 2.5V6C18.25 6.46413 18.4344 6.90925 18.7626 7.23744C19.0908 7.56563 19.5359 7.75 20 7.75H23.5C23.9641 7.75 24.4092 7.56563 24.7374 7.23744C25.0656 6.90925 25.25 6.46413 25.25 6V2.5C25.25 2.03587 25.0656 1.59075 24.7374 1.26256C24.4092 0.934374 23.9641 0.75 23.5 0.75H20ZM18.25 11.25C18.25 10.7859 18.4344 10.3408 18.7626 10.0126C19.0908 9.68437 19.5359 9.5 20 9.5H23.5C23.9641 9.5 24.4092 9.68437 24.7374 10.0126C25.0656 10.3408 25.25 10.7859 25.25 11.25V14.75C25.25 15.2141 25.0656 15.6592 24.7374 15.9874C24.4092 16.3156 23.9641 16.5 23.5 16.5H20C19.5359 16.5 19.0908 16.3156 18.7626 15.9874C18.4344 15.6592 18.25 15.2141 18.25 14.75V11.25ZM20 18.25C19.5359 18.25 19.0908 18.4344 18.7626 18.7626C18.4344 19.0908 18.25 19.5359 18.25 20V23.5C18.25 23.9641 18.4344 24.4092 18.7626 24.7374C19.0908 25.0656 19.5359 25.25 20 25.25H23.5C23.9641 25.25 24.4092 25.0656 24.7374 24.7374C25.0656 24.4092 25.25 23.9641 25.25 23.5V20C25.25 19.5359 25.0656 19.0908 24.7374 18.7626C24.4092 18.4344 23.9641 18.25 23.5 18.25H20Z" fill="black"/>
</svg>
